# xmcd
#
# Track frame offsets:
# 200
# 12607
# 25202
# 36732
# 47095
# 58390
# 68182
# 79330
# 90785
# 101362
# 112600
# 125105
#
# Disc length: 1817 seconds
#
#
# Revision: 0
# Processed by: cddbd v1.4PL0 Copyright (c) Steve Scherf et al.
# Submitted via: FreeRIP 2.40 
#
DISCID=a007170c
DTITLE=Patsy Cline - Crazy
DYEAR=1900
DGENRE=Country
TTITLE0=Crazy
TTITLE1=I Fall to Pieces
TTITLE2=Walking After Midnight
TTITLE3=I Love You Honey
TTITLE4=Just Out of Reach
TTITLE5=I'm Blue Again
TTITLE6=Hungry for Love
TTITLE7=I've Loved and Lost Again
TTITLE8=Stop, Look and Listen
TTITLE9=The Heart You Break May Be Your Own
TTITLE10=Fingerprints
TTITLE11=In Care of the Blues
EXTD=Music International
EXTT0=
EXTT1=
EXTT2=
EXTT3=
EXTT4=
EXTT5=
EXTT6=
EXTT7=
EXTT8=
EXTT9=
EXTT10=
EXTT11=
PLAYORDER=
